HIERARCHY
ROOT joint_Root
{
	OFFSET 0.0 0.0 0.0
	CHANNELS 6 Xposition Yposition Zposition Zrotation Xrotation Yrotation 
	JOINT Hips
	{
		OFFSET -0.726466 93.3139 -2.00062
		CHANNELS 6 Xposition Yposition Zposition Zrotation Xrotation Yrotation 
		JOINT Spine
		{
			OFFSET 15.7357 0.0 0.0
			CHANNELS 6 Xposition Yposition Zposition Zrotation Xrotation Yrotation 
			JOINT Chest
			{
				OFFSET 8.98455 -0.406207 0.0
				CHANNELS 6 Xposition Yposition Zposition Zrotation Xrotation Yrotation 
				JOINT Neck
				{
					OFFSET 16.3773 0.0 0.0
					CHANNELS 6 Xposition Yposition Zposition Zrotation Xrotation Yrotation 
					JOINT Head
					{
						OFFSET 6.45672 0.0 0.0
						CHANNELS 6 Xposition Yposition Zposition Zrotation Xrotation Yrotation 
						End Site
						{
							OFFSET 0.0 0.0 0.0
						}
					}
				}
				JOINT Shoulder_L
				{
					OFFSET 12.9942 -0.242716 4.98039
					CHANNELS 6 Xposition Yposition Zposition Zrotation Xrotation Yrotation 
					JOINT UpperArm_L
					{
						OFFSET 5.34809 0.0 0.0
						CHANNELS 6 Xposition Yposition Zposition Zrotation Xrotation Yrotation 
						JOINT LowerArm_L
						{
							OFFSET 24.3286 1.87007e-05 0.0
							CHANNELS 6 Xposition Yposition Zposition Zrotation Xrotation Yrotation 
							JOINT Hand_L
							{
								OFFSET 22.2916 0.0 0.0
								CHANNELS 6 Xposition Yposition Zposition Zrotation Xrotation Yrotation 
								End Site
								{
									OFFSET 0.0 0.0 0.0
								}
							}
						}
					}
				}
				JOINT Shoulder_R
				{
					OFFSET 12.9945 -0.242716 -4.98039
					CHANNELS 6 Xposition Yposition Zposition Zrotation Xrotation Yrotation 
					JOINT UpperArm_R
					{
						OFFSET -5.34813 0.0 0.0
						CHANNELS 6 Xposition Yposition Zposition Zrotation Xrotation Yrotation 
						JOINT LowerArm_R
						{
							OFFSET -24.3289 0.000322201 0.0
							CHANNELS 6 Xposition Yposition Zposition Zrotation Xrotation Yrotation 
							JOINT Hand_R
							{
								OFFSET -22.2915 -0.000108084 0.0
								CHANNELS 6 Xposition Yposition Zposition Zrotation Xrotation Yrotation 
								End Site
								{
									OFFSET 0.0 0.0 0.0
								}
							}
						}
					}
				}
			}
		}
		JOINT UpperLeg_L
		{
			OFFSET -2.19248 -6.46944 0.0
			CHANNELS 6 Xposition Yposition Zposition Zrotation Xrotation Yrotation 
			JOINT LowerLeg_L
			{
				OFFSET 39.0811 0.0 -1.23785e-05
				CHANNELS 6 Xposition Yposition Zposition Zrotation Xrotation Yrotation 
				JOINT Foot_L
				{
					OFFSET 40.9854 0.0 -1.26872e-05
					CHANNELS 6 Xposition Yposition Zposition Zrotation Xrotation Yrotation 
					JOINT Toes_L
					{
						OFFSET 11.7543 0.0 0.0
						CHANNELS 6 Xposition Yposition Zposition Zrotation Xrotation Yrotation 
						End Site
						{
							OFFSET 0.0 0.0 0.0
						}
					}
				}
			}
		}
		JOINT UpperLeg_R
		{
			OFFSET -2.19251 6.46944 0.0
			CHANNELS 6 Xposition Yposition Zposition Zrotation Xrotation Yrotation 
			JOINT LowerLeg_R
			{
				OFFSET -39.0811 -0.00228153 -0.0401928
				CHANNELS 6 Xposition Yposition Zposition Zrotation Xrotation Yrotation 
				JOINT Foot_R
				{
					OFFSET -40.9854 0.0 0.0
					CHANNELS 6 Xposition Yposition Zposition Zrotation Xrotation Yrotation 
					JOINT Toes_R
					{
						OFFSET -11.7543 0.0 0.0
						CHANNELS 6 Xposition Yposition Zposition Zrotation Xrotation Yrotation 
						End Site
						{
							OFFSET 0.0 0.0 0.0
						}
					}
				}
			}
		}
	}
}
MOTION
Frames:	9
Frame Time:	0.0333333
0.000000 0.000000 0.000000 0.000000 0.000000 -0.000000 -1.858510 93.024000 -1.118940 89.084100 -2.373590 0.566712 15.735700 0.000005 -0.000001 97.754600 86.765900 -97.845900 8.984550 -0.406207 -0.000000 -1.356360 0.879822 -0.172120 16.377300 -0.000001 -0.000001 2.276650 -3.042000 3.765920 6.456720 -0.000001 -0.000000 7.768750 -1.712160 -3.605150 12.994200 -0.242716 4.980390 -90.306000 0.923265 -71.663800 5.348090 -0.000007 -0.000001 -70.168700 35.217600 -10.807300 24.328600 0.000019 0.000005 4.072250 10.345800 -21.624600 22.291600 -0.000001 0.000005 3.868150 5.483240 -5.872700 12.994500 -0.242716 -4.980390 87.756500 7.068980 -72.341400 -5.348130 -0.000001 -0.000004 -66.392100 34.327100 -11.440100 -24.328900 0.000322 -0.000009 2.540920 6.932130 -20.194900 -22.291500 -0.000108 -0.000004 8.002620 5.307430 -0.137538 -2.192480 -6.469440 -0.000000 -176.271000 -9.516160 -3.491120 39.081100 -0.000007 -0.000012 -0.061937 0.210920 16.364800 40.985400 -0.000006 -0.000013 -0.986754 4.033630 -62.304800 11.754300 -0.000000 0.000003 -0.000006 -0.000090 -16.581100 -2.192510 6.469440 -0.000001 -179.949000 12.061600 179.048000 -39.081100 -0.002282 -0.040193 -0.045960 0.207177 13.383400 -40.985400 0.000008 0.000006 1.626480 7.016330 -62.262100 -11.754300 -0.000006 -0.000006 -0.005942 -0.070304 -19.434300
0.000000 0.000000 0.000000 0.000000 0.000000 -0.000000 -1.858090 93.030700 -1.146850 89.101000 -2.228480 0.545956 15.735700 0.000005 -0.000001 96.711900 86.778600 -96.864400 8.984550 -0.406207 -0.000000 -1.366350 0.765000 -0.295745 16.377300 -0.000001 -0.000001 2.242320 -3.113470 3.840500 6.456720 -0.000001 -0.000000 7.730040 -1.715810 -3.627500 12.994200 -0.242716 4.980390 -90.278200 0.839071 -71.657800 5.348090 -0.000007 -0.000001 -70.389100 34.816200 -10.654200 24.328600 0.000019 0.000005 4.090650 10.339100 -21.726100 22.291600 -0.000001 0.000005 3.937710 5.479060 -5.712650 12.994500 -0.242716 -4.980390 87.794800 6.796660 -71.976000 -5.348130 -0.000001 -0.000004 -64.952000 32.589900 -13.019800 -24.328900 0.000322 -0.000009 3.058690 7.933350 -21.169500 -22.291500 -0.000108 -0.000004 5.801860 5.302390 0.006582 -2.192480 -6.469440 -0.000000 -176.291000 -9.471560 -3.519970 39.081100 -0.000007 -0.000012 -0.061807 0.211276 16.306400 40.985400 -0.000006 -0.000013 -0.968434 4.149210 -62.247000 11.754300 -0.000000 0.000003 -0.000006 -0.000078 -16.580600 -2.192510 6.469440 -0.000001 -179.930000 12.043500 179.016000 -39.081100 -0.002282 -0.040193 -0.044651 0.201782 13.376500 -40.985400 0.000008 0.000006 1.710160 6.846200 -62.260500 -11.754300 -0.000006 -0.000006 -0.005953 -0.070412 -19.438700
0.000000 0.000000 0.000000 0.000000 0.000000 -0.000000 -1.834160 93.037600 -1.201220 89.083100 -2.175310 0.559556 15.735700 0.000005 -0.000001 95.401300 86.784900 -95.614600 8.984550 -0.406207 -0.000000 -1.363190 0.622135 -0.418890 16.377300 -0.000001 -0.000001 2.308440 -3.186730 3.961050 6.456720 -0.000001 -0.000000 7.643850 -1.673130 -3.728530 12.994200 -0.242716 4.980390 -90.272500 0.819962 -71.613600 5.348090 -0.000007 -0.000001 -70.517900 34.510700 -10.515200 24.328600 0.000019 0.000005 4.098560 10.354000 -21.736300 22.291600 -0.000001 0.000005 4.048690 5.480200 -5.756010 12.994500 -0.242716 -4.980390 87.831300 6.474790 -71.436900 -5.348130 -0.000001 -0.000004 -62.340400 29.317200 -15.781700 -24.328900 0.000322 -0.000009 3.342340 8.001840 -22.766300 -22.291500 -0.000108 -0.000004 4.173440 5.304680 -0.058701 -2.192480 -6.469440 -0.000000 -176.281000 -9.537800 -3.558390 39.081100 -0.000007 -0.000012 -0.062266 0.212780 16.311000 40.985400 -0.000006 -0.000013 -0.933115 4.280830 -62.202000 11.754300 -0.000000 0.000003 -0.000007 -0.000091 -16.581100 -2.192510 6.469440 -0.000001 -179.895000 12.008500 178.995000 -39.081100 -0.002282 -0.040193 -0.043045 0.195017 13.377400 -40.985400 0.000008 0.000006 1.838170 6.712370 -62.245100 -11.754300 -0.000006 -0.000006 -0.006062 -0.071401 -19.479100
0.000000 0.000000 0.000000 0.000000 0.000000 -0.000000 -1.765430 93.042800 -1.264310 89.096100 -2.227540 0.664060 15.735700 0.000005 -0.000001 94.311600 86.769800 -94.615400 8.984550 -0.406207 -0.000000 -1.322490 0.509680 -0.601485 16.377300 -0.000001 -0.000001 2.476630 -3.264290 4.180490 6.456720 -0.000001 -0.000000 7.539510 -1.612250 -3.843750 12.994200 -0.242716 4.980390 -90.274300 0.820807 -71.519900 5.348090 -0.000007 -0.000001 -70.530800 34.363000 -10.474300 24.328600 0.000019 0.000005 4.117220 10.456900 -21.633400 22.291600 -0.000001 0.000005 4.033470 5.481710 -5.814000 12.994500 -0.242716 -4.980390 87.908700 6.021350 -70.805900 -5.348130 -0.000001 -0.000004 -58.947600 24.749100 -19.617100 -24.328900 0.000322 -0.000009 3.303940 7.227050 -24.658000 -22.291500 -0.000108 -0.000004 4.449950 5.297110 0.152880 -2.192480 -6.469440 -0.000000 -176.326000 -9.647440 -3.487580 39.081100 -0.000007 -0.000012 -0.060511 0.206835 16.307200 40.985400 -0.000006 -0.000013 -0.871538 4.344200 -62.167800 11.754300 -0.000000 0.000003 -0.000006 -0.000085 -16.580900 -2.192510 6.469440 -0.000001 -179.969000 11.951400 179.038000 -39.081100 -0.002282 -0.040193 -0.043043 0.194653 13.401000 -40.985400 0.000008 0.000006 1.773690 6.740520 -62.194900 -11.754300 -0.000006 -0.000006 -0.006072 -0.071491 -19.482700
0.000000 0.000000 0.000000 0.000000 0.000000 -0.000000 -1.679020 93.048200 -1.346430 89.067100 -2.342140 0.662920 15.735700 0.000005 -0.000001 93.682000 86.796100 -94.065700 8.984550 -0.406207 -0.000000 -1.369780 0.441998 -0.761695 16.377300 -0.000001 -0.000001 2.615240 -3.326690 4.395390 6.456720 -0.000001 -0.000000 7.581190 -1.627740 -3.898930 12.994200 -0.242716 4.980390 -90.287900 0.852694 -71.342700 5.348090 -0.000007 -0.000001 -70.463000 34.311200 -10.519600 24.328600 0.000019 0.000005 4.164890 10.605400 -21.586600 22.291600 -0.000001 0.000005 4.035550 5.478490 -5.690730 12.994500 -0.242716 -4.980390 88.027800 5.505140 -70.254300 -5.348130 -0.000001 -0.000004 -55.481200 18.566400 -23.935000 -24.328900 0.000322 -0.000009 3.365110 6.643080 -26.951000 -22.291500 -0.000108 -0.000004 5.252260 5.274680 0.770148 -2.192480 -6.469440 -0.000000 -176.377000 -9.627570 -3.561700 39.081100 -0.000007 -0.000012 -0.060421 0.205764 16.364400 40.985400 -0.000006 -0.000013 -0.824583 4.185500 -62.159000 11.754300 -0.000000 0.000003 -0.000005 -0.000076 -16.580500 -2.192510 6.469440 -0.000001 -180.000000 11.917000 178.981000 -39.081100 -0.002282 -0.040193 -0.043246 0.195912 13.374100 -40.985400 0.000008 0.000006 1.645260 6.838080 -62.089400 -11.754300 -0.000006 -0.000006 -0.006019 -0.071003 -19.462800
0.000000 0.000000 0.000000 0.000000 0.000000 -0.000000 -1.577550 93.052500 -1.400730 89.041000 -2.466900 0.733706 15.735700 0.000005 -0.000001 94.075400 86.803500 -94.542600 8.984550 -0.406207 -0.000000 -1.386990 0.491555 -0.928048 16.377300 -0.000001 -0.000001 2.704860 -3.414540 4.570690 6.456720 -0.000001 -0.000000 7.712640 -1.736050 -3.874730 12.994200 -0.242716 4.980390 -90.298600 0.877519 -71.206400 5.348090 -0.000007 -0.000001 -70.472500 34.105800 -10.545600 24.328600 0.000019 0.000005 4.194650 10.703100 -21.549100 22.291600 -0.000001 0.000005 4.162130 5.479220 -5.718850 12.994500 -0.242716 -4.980390 88.163800 5.013250 -69.853600 -5.348130 -0.000001 -0.000004 -52.156900 11.229400 -28.478800 -24.328900 0.000322 -0.000009 3.296370 5.897080 -29.284100 -22.291500 -0.000108 -0.000004 6.022790 5.253320 1.343690 -2.192480 -6.469440 -0.000000 -176.419000 -9.708120 -3.546610 39.081100 -0.000007 -0.000012 -0.059221 0.200971 16.418900 40.985400 -0.000006 -0.000013 -0.758616 4.107310 -62.161500 11.754300 -0.000000 0.000003 -0.000005 -0.000069 -16.580200 -2.192510 6.469440 -0.000001 179.945000 11.855500 179.007000 -39.081100 -0.002282 -0.040193 -0.042785 0.194006 13.371800 -40.985400 0.000008 0.000006 1.611620 6.919240 -62.031300 -11.754300 -0.000006 -0.000006 -0.006178 -0.072448 -19.521700
0.000000 0.000000 0.000000 0.000000 0.000000 -0.000000 -1.482000 93.058100 -1.456690 89.018800 -2.505800 0.737899 15.735700 0.000005 -0.000001 94.517900 86.823700 -95.040600 8.984550 -0.406207 -0.000000 -1.430410 0.542233 -1.038290 16.377300 -0.000001 -0.000001 2.823370 -3.499480 4.685670 6.456720 -0.000001 -0.000000 7.620210 -1.847780 -3.985080 12.994200 -0.242716 4.980390 -90.322500 0.940924 -71.079200 5.348090 -0.000007 -0.000001 -70.448900 33.898800 -10.536800 24.328600 0.000019 0.000005 4.218670 10.685700 -21.693100 22.291600 -0.000001 0.000005 4.222560 5.481120 -5.791310 12.994500 -0.242716 -4.980390 88.347500 4.449970 -69.603600 -5.348130 -0.000001 -0.000004 -49.205100 3.252880 -33.443100 -24.328900 0.000322 -0.000009 3.130250 5.230870 -30.967800 -22.291500 -0.000108 -0.000004 6.921780 5.239060 1.718160 -2.192480 -6.469440 -0.000000 -176.468000 -9.727990 -3.591140 39.081100 -0.000007 -0.000012 -0.058856 0.199333 16.449800 40.985400 -0.000006 -0.000013 -0.689805 4.090580 -62.153200 11.754300 -0.000000 0.000003 -0.000004 -0.000052 -16.579500 -2.192510 6.469440 -0.000001 179.919000 11.820500 178.969000 -39.081100 -0.002282 -0.040193 -0.042509 0.193083 13.356000 -40.985400 0.000008 0.000006 1.570640 6.899780 -61.964200 -11.754300 -0.000006 -0.000006 -0.006018 -0.071002 -19.462800
0.000000 0.000000 0.000000 0.000000 0.000000 -0.000000 -1.394240 93.067100 -1.494280 89.004400 -2.474930 0.787221 15.735700 0.000005 -0.000001 95.013500 86.822200 -95.579100 8.984550 -0.406207 -0.000000 -1.431470 0.600691 -1.123330 16.377300 -0.000001 -0.000001 2.815230 -3.484300 4.765870 6.456720 -0.000001 -0.000000 7.523140 -1.904890 -4.088740 12.994200 -0.242716 4.980390 -90.339400 0.982732 -70.949100 5.348090 -0.000007 -0.000001 -70.290300 34.025000 -10.536100 24.328600 0.000019 0.000005 4.191980 10.437600 -22.026800 22.291600 -0.000001 0.000005 4.255070 5.480280 -5.758990 12.994500 -0.242716 -4.980390 88.581300 3.827170 -69.643300 -5.348130 -0.000001 -0.000004 -46.961600 -5.229090 -38.446000 -24.328900 0.000322 -0.000009 2.955600 4.680520 -32.333600 -22.291500 -0.000108 -0.000004 8.268690 5.213190 2.382880 -2.192480 -6.469440 -0.000000 -176.519000 -9.689840 -3.577860 39.081100 -0.000007 -0.000012 -0.057487 0.194815 16.440300 40.985400 -0.000006 -0.000013 -0.636035 4.013590 -62.118600 11.754300 -0.000000 0.000003 -0.000006 -0.000082 -16.580700 -2.192510 6.469440 -0.000001 179.883000 11.818000 179.018000 -39.081100 -0.002282 -0.040193 -0.040199 0.183938 13.315200 -40.985400 0.000008 0.000006 1.651410 6.894780 -61.930900 -11.754300 -0.000006 -0.000006 -0.005988 -0.070729 -19.451600
0.000000 0.000000 0.000000 0.000000 0.000000 -0.000000 -1.323610 93.071700 -1.526000 89.015700 -2.309670 0.764261 15.735700 0.000005 -0.000001 95.589400 86.838500 -96.190500 8.984550 -0.406207 -0.000000 -1.469350 0.664148 -1.193390 16.377300 -0.000001 -0.000001 2.739060 -3.440710 4.783890 6.456720 -0.000001 -0.000000 7.362720 -1.975200 -4.138440 12.994200 -0.242716 4.980390 -90.343500 0.988639 -70.841800 5.348090 -0.000007 -0.000001 -70.075700 34.240200 -10.588400 24.328600 0.000019 0.000005 4.183470 10.283100 -22.281200 22.291600 -0.000001 0.000005 4.263660 5.482480 -5.843550 12.994500 -0.242716 -4.980390 88.850700 3.119630 -69.763900 -5.348130 -0.000001 -0.000004 -45.540900 -13.776200 -43.593000 -24.328900 0.000322 -0.000009 2.733950 4.157820 -33.381100 -22.291500 -0.000108 -0.000004 9.791710 5.194280 2.860060 -2.192480 -6.469440 -0.000000 -176.584000 -9.632060 -3.647480 39.081100 -0.000007 -0.000012 -0.057330 0.194322 16.437300 40.985400 -0.000006 -0.000013 -0.567993 4.121590 -62.086600 11.754300 -0.000000 0.000003 -0.000005 -0.000070 -16.580300 -2.192510 6.469440 -0.000001 179.839000 11.934800 178.983000 -39.081100 -0.002282 -0.040193 -0.039141 0.179570 13.307700 -40.985400 0.000008 0.000006 1.634650 6.862950 -61.908800 -11.754300 -0.000006 -0.000006 -0.006265 -0.073220 -19.553300
